Exact Audio Copy V0.99 prebeta 1 from 25. May 2007

EAC 抓取日志文件从20. 二月 2011, 23:27

王靖雯 / 20世纪中华歌坛名人百集珍藏版

使用驱动器  ：PIONEER DVD-RW  DVR-115   Adapter: 0  ID: 0

读取模式     : 保护
使用精确流   : 是
废除音频缓冲 : 是
使用 C2 指针 : 否

读取偏移校正                   : 38
读取 Lead-In 和 Lead-Out       : 否
用静音填充抓取中丢失偏移的采样 : 是
去除首尾静音块                 : 否
已用接口                        : Win NT 及 2000 本地 Win32 接口

所用输出格式 : 内部 WAV 函数
样本格式     : 44.100 Hz;16 Bit;立体声


被抓轨 CD 的 TOC

     音轨 |   开始   |   长度   | 起始扇区 | 结尾扇区 
    --------------------------------------------------
       1  |  0:00.00 |  4:21.67 |       0  |   19641  
       2  |  4:21.67 |  4:07.43 |   19642  |   38209  
       3  |  8:29.35 |  4:40.37 |   38210  |   59246  
       4  | 13:09.72 |  4:12.65 |   59247  |   78211  
       5  | 17:22.62 |  4:48.67 |   78212  |   99878  
       6  | 22:11.54 |  4:17.28 |   99879  |  119181  
       7  | 26:29.07 |  4:12.15 |  119182  |  138096  
       8  | 30:41.22 |  4:26.15 |  138097  |  158061  
       9  | 35:07.37 |  4:31.00 |  158062  |  178386  
      10  | 39:38.37 |  4:02.05 |  178387  |  196541  
      11  | 43:40.42 |  4:00.53 |  196542  |  214594  
      12  | 47:41.20 |  4:02.60 |  214595  |  232804  
      13  | 51:44.05 |  3:28.25 |  232805  |  248429  
      14  | 55:12.30 |  5:00.52 |  248430  |  270981  


范围状态及错误

已选择范围

     文件名 E:\文件夹\20世纪中华歌坛名人百集珍藏版-王靖雯[lwg188原创]\王靖雯 - 20世纪中华歌坛名人百集珍藏版.wav

     峰值电平 89.9 %
     范围质量 99.7 %
     复制 CRC 26233024
     复制成功

没有错误发生

状态报告结尾
